<svg xmlns="http://www.w3.org/2000/svg" width="136" height="20" fill="none"><path fill="#fff" d="M0 15.234v-1.709l1.514-.293V3.027L0 2.734V1.016h4.404l6.192 9.863.058-.01V3.027l-1.816-.293V1.016h5.889v1.718l-1.524.293v12.207H10.45L4.121 5.47l-.059.01v7.753l1.827.293v1.71zm20.791.206q-1.524 0-2.656-.665a4.7 4.7 0 0 1-1.748-1.845q-.616-1.172-.616-2.676v-.39q0-1.573.586-2.784.586-1.221 1.65-1.914 1.075-.703 2.53-.693 2.139 0 3.272 1.26 1.132 1.25 1.132 3.515v1.553h-6.21l-.02.058q.078 1.045.693 1.72.615.672 1.748.673.782 0 1.455-.195a5.7 5.7 0 0 0 1.329-.596l.771 1.758q-.654.527-1.65.879-.987.34-2.266.341M18.75 8.916h3.525v-.254q0-.957-.4-1.514-.39-.566-1.29-.566-.858 0-1.308.654-.45.645-.556 1.631zm10.967 6.318-2.461-8.613-1.29-.234V4.668h5.108v1.709l-1.113.215.977 4.111.195.81h.058l.264-.81 2.168-6.035h1.914l2.1 6.113.273.86h.059l.254-.86 1.152-4.18-1.23-.224V4.668h5v1.719l-1.23.234-2.687 8.613h-2.402L34.893 10l-.342-1.162h-.059l-.342 1.172-1.904 5.224zm18.867.206a10.3 10.3 0 0 1-2.207-.225 10 10 0 0 1-1.953-.645l-.03-2.988h1.983l.38 1.523q.333.167.724.264.4.098.908.098.957 0 1.347-.313.39-.312.391-.781 0-.44-.42-.771-.42-.342-1.65-.596-1.885-.39-2.774-1.211-.879-.82-.879-2.1 0-.87.44-1.601.45-.733 1.357-1.162.918-.44 2.344-.44 1.191 0 2.178.235.995.225 1.67.595l.029 2.89h-1.973l-.302-1.386q-.567-.39-1.426-.39-.743 0-1.153.312-.4.303-.4.772 0 .41.352.742.36.322 1.572.595 1.962.45 2.861 1.202.9.741.899 2.09 0 1.475-1.075 2.382-1.065.909-3.193.909m5.498-.206v-1.709l1.514-.293V3.027l-1.514-.293V1.016h11.035v3.838H62.93l-.127-1.641h-4.356v3.574h4.815v2.197h-4.815v4.063h4.59l.127-1.7h2.168v3.887zm12.52 0v-1.709l1.357-.175 3.027-3.409-2.861-3.388-1.28-.166V4.668h5.235v1.64l-.82.128 1.533 2.011 1.533-2.011-.908-.127V4.668h5.049v1.719l-1.182.166-2.705 3.271 3.018 3.526 1.299.175v1.71h-5.42v-1.631l.917-.127-1.63-2.022-1.592 2.031.898.117v1.631zm13.144 4.063v-1.719l1.377-.293V6.68L79.6 6.387V4.668h4.14l.137 1.23q.469-.683 1.133-1.054.663-.372 1.582-.371 1.28 0 2.187.703.909.693 1.387 1.943.489 1.25.488 2.92v.205q0 1.563-.488 2.735-.488 1.162-1.406 1.816-.909.645-2.188.645-1.67 0-2.607-1.211v3.056l1.377.293v1.719zm5.977-6.045q1.093 0 1.582-.81.498-.811.498-2.198v-.205q0-1.494-.508-2.422-.509-.928-1.592-.928-1.191 0-1.738 1.016v4.629q.537.918 1.758.918m5.85 1.982v-1.709l1.376-.293V2.012l-1.523-.293V0H95.8v13.232l1.377.293v1.71zm11.386.206q-1.573 0-2.695-.684a4.5 4.5 0 0 1-1.71-1.895q-.595-1.221-.595-2.802v-.205q0-1.573.596-2.784a4.5 4.5 0 0 1 1.709-1.904q1.122-.693 2.675-.693 1.563 0 2.676.683a4.47 4.47 0 0 1 1.719 1.905q.596 1.21.596 2.793v.205q0 1.582-.596 2.802a4.5 4.5 0 0 1-1.709 1.895q-1.113.684-2.666.684m0-2.188q1.104 0 1.611-.879.518-.879.518-2.314v-.205q0-1.407-.518-2.295-.517-.89-1.631-.89t-1.621.89-.507 2.295v.205q0 1.445.507 2.324.508.87 1.641.869m6.465 1.982v-1.709l1.367-.293V6.68l-1.514-.293V4.668h4.17l.108 1.309.019.234q.781-1.738 2.344-1.738.254 0 .547.039.303.039.547.117l-.303 2.627-1.416-.078q-.606-.03-.986.205-.372.234-.664.674v5.175l1.367.293v1.71zm13.301.206q-1.524 0-2.657-.665a4.7 4.7 0 0 1-1.748-1.845q-.615-1.172-.615-2.676v-.39q0-1.573.586-2.784.587-1.221 1.65-1.914 1.075-.703 2.53-.693 2.138 0 3.271 1.26 1.133 1.25 1.133 3.515v1.553h-6.211l-.019.058q.078 1.045.693 1.72.615.672 1.748.673.782 0 1.455-.195a5.7 5.7 0 0 0 1.328-.596l.772 1.758q-.655.527-1.651.879-.986.34-2.265.341m-2.041-6.524h3.525v-.254q0-.957-.4-1.514-.392-.566-1.289-.566-.86 0-1.309.654-.45.645-.557 1.631zm7.724 6.318v-1.709l1.367-.293V6.68l-1.513-.293V4.668h4.17l.107 1.309.02.234q.78-1.738 2.343-1.738.255 0 .547.039.303.039.547.117l-.303 2.627-1.416-.078q-.605-.03-.986.205-.371.234-.664.674v5.175l1.367.293v1.71z"/></svg>